name Walk6.mot
datacolumns 19
datarows 15
range 1.19500000 1.26500000
endheader

                time	   L_ground_force_vx	   L_ground_force_vy	   L_ground_force_vz	   L_ground_force_px	   L_ground_force_py	   L_ground_force_pz	   R_ground_force_vx	   R_ground_force_vy	   R_ground_force_vz	   R_ground_force_px	   R_ground_force_py	   R_ground_force_pz	   L_ground_torque_x	   L_ground_torque_y	   L_ground_torque_z	   R_ground_torque_x	   R_ground_torque_y	   R_ground_torque_z	
          1.19500000	         29.15662753	        492.07327221	         23.70208868	         -0.38367122	          0.00000000	          0.01428916	         -0.00760824	          0.59287852	          0.05373044	          0.00017212	          0.00000000	          0.00015070	          0.00000000	         -1.12164592	          0.00000000	          0.00000000	          0.01025676	          0.00000000	
          1.20000000	         32.35537326	        500.07553676	         23.71762218	         -0.38340940	          0.00000000	          0.01458990	         -0.02386153	          0.62294464	          0.05355958	          0.00016091	          0.00000000	          0.00014140	          0.00000000	         -1.22023440	          0.00000000	          0.00000000	          0.01257544	          0.00000000	
          1.20500000	         35.61187062	        508.22063002	         23.61548455	         -0.38311068	          0.00000000	          0.01491816	         -0.04626378	          0.59300258	          0.04668774	          0.00012359	          0.00000000	          0.00010947	          0.00000000	         -1.32206873	          0.00000000	          0.00000000	          0.01464024	          0.00000000	
          1.21000000	         38.93295334	        516.43902011	         23.39212967	         -0.38277238	          0.00000000	          0.01526990	         -0.07549178	          0.47317767	          0.03021403	          0.00005014	          0.00000000	          0.00004617	          0.00000000	         -1.42639870	          0.00000000	          0.00000000	          0.01605449	          0.00000000	
          1.21500000	         42.32367463	        524.64827428	         23.04617721	         -0.38239292	          0.00000000	          0.01564052	         -0.11175908	          0.22796904	          0.00079901	         -0.00007058	          0.00000000	         -0.00005822	          0.00000000	         -1.53198119	          0.00000000	          0.00000000	          0.01627988	          0.00000000	
          1.22000000	         45.78854969	        532.75015747	         22.58007119	         -0.38197197	          0.00000000	          0.01602597	         -0.15453052	         -0.18251931	         -0.04516871	         -0.00025011	          0.00000000	         -0.00021384	          0.00000000	         -1.63727606	          0.00000000	          0.00000000	          0.01462358	          0.00000000	
          1.22500000	         49.33318502	        540.63266944	         21.99940104	         -0.38151099	          0.00000000	          0.01642415	         -0.20216950	         -0.80011675	         -0.11127927	         -0.00049924	          0.00000000	         -0.00043012	          0.00000000	         -1.74048244	          0.00000000	          0.00000000	          0.01023728	          0.00000000	
          1.23000000	         52.96362285	        548.17187282	         21.31218860	         -0.38101264	          0.00000000	          0.01683390	         -0.25152358	         -1.66450881	         -0.20064687	         -0.00082614	          0.00000000	         -0.00071435	          0.00000000	         -1.83973905	          0.00000000	          0.00000000	          0.00213483	          0.00000000	
          1.23500000	         56.68420129	        555.23443214	         20.52827967	         -0.38047843	          0.00000000	          0.01725441	         -0.29746541	         -2.80714358	         -0.31525951	         -0.00123402	          0.00000000	         -0.00106947	          0.00000000	         -1.93310973	          0.00000000	          0.00000000	         -0.01076325	          0.00000000	
          1.24000000	         60.49473681	        561.68251227	         19.65946168	         -0.37990904	          0.00000000	          0.01768366	         -0.33242032	         -4.24274542	         -0.45510378	         -0.00171788	          0.00000000	         -0.00149134	          0.00000000	         -2.01881074	          0.00000000	          0.00000000	         -0.02954884	          0.00000000	
          1.24500000	         64.39010356	        567.37764863	         18.71830395	         -0.37930521	          0.00000000	          0.01811850	         -0.34593155	         -5.95814416	         -0.61704702	         -0.00226053	          0.00000000	         -0.00196527	          0.00000000	         -2.09513557	          0.00000000	          0.00000000	         -0.05519852	          0.00000000	
          1.25000000	         68.36072893	        572.18448481	         17.71732036	         -0.37866843	          0.00000000	          0.01855725	         -0.32433761	         -7.89829567	         -0.79347881	         -0.00282794	          0.00000000	         -0.00246194	          0.00000000	         -2.16071628	          0.00000000	          0.00000000	         -0.08838857	          0.00000000	
          1.25500000	         72.39461075	        575.97310529	         16.66695638	         -0.37800002	          0.00000000	          0.01899846	         -0.25066452	         -9.94964692	         -0.97074473	         -0.00336399	          0.00000000	         -0.00293281	          0.00000000	         -2.21432417	          0.00000000	          0.00000000	         -0.12924367	          0.00000000	
          1.26000000	         76.47770760	        578.61562650	         15.57716477	         -0.37730146	          0.00000000	          0.01944043	         -0.10486623	        -11.92141158	         -1.12744953	         -0.00378501	          0.00000000	         -0.00330537	          0.00000000	         -2.25513483	          0.00000000	          0.00000000	         -0.17701291	          0.00000000	
          1.26500000	         80.59345130	        579.98521718	         14.45877214	         -0.37657568	          0.00000000	          0.01988120	          0.13542162	        -13.52589659	         -1.23276564	         -0.00397475	          0.00000000	         -0.00347868	          0.00000000	         -2.28285761	          0.00000000	          0.00000000	         -0.22967263	          0.00000000	
